<svg width="20" height="20" viewBox="0 0 20 20" fill="none" xmlns="http://www.w3.org/2000/svg">
<path fill-rule="evenodd" clip-rule="evenodd" d="M7.33333 1H5.55556V2.8H2V10.9V19H18V2.8H14.4444V1H12.6667V2.8H7.33333V1ZM5.55556 4.6H7.33333H12.6667H14.4444H16.2222V17.2H3.77778V4.6H5.55556Z" fill="#2375E1"/>
<path d="M3.77778 6.4H16.2222V8.2H3.77778V6.4Z" fill="#2375E1"/>
<path d="M5.55556 13.6H7.33333V15.4H5.55556V13.6Z" fill="#2375E1"/>
<path d="M9.11111 13.6H10.8889V15.4H9.11111V13.6Z" fill="#2375E1"/>
<path d="M5.55556 10H7.33333V11.8H5.55556V10Z" fill="#2375E1"/>
<path d="M9.11111 10H10.8889V11.8H9.11111V10Z" fill="#2375E1"/>
<path d="M12.6667 10H14.4444V11.8H12.6667V10Z" fill="#2375E1"/>
</svg>
