<svg width="20" height="20" viewBox="0 0 20 20" fill="none" xmlns="http://www.w3.org/2000/svg">
<path fill-rule="evenodd" clip-rule="evenodd" d="M14 9.99998C14 12.2091 12.2091 14 10 14C7.79086 14 6 12.2091 6 9.99998C6 7.79085 7.79086 5.99998 10 5.99998C12.2091 5.99998 14 7.79085 14 9.99998ZM12 9.99998C12 11.1046 11.1046 12 10 12C8.89543 12 8 11.1046 8 9.99998C8 8.89542 8.89543 7.99998 10 7.99998C11.1046 7.99998 12 8.89542 12 9.99998Z" fill="#6E7178"/>
<path fill-rule="evenodd" clip-rule="evenodd" d="M16.25 5.16999C16.4672 5.44905 16.6643 5.74312 16.84 6.04999C17.0166 6.35642 17.1735 6.67372 17.31 6.99999H19.53C20.1442 8.95284 20.1442 11.0471 19.53 13H17.3C17.0459 13.6438 16.7098 14.2522 16.3 14.81L17.42 16.75C16.0348 18.259 14.2197 19.3062 12.22 19.75L11.11 17.82C10.4096 17.91 9.70046 17.91 9.00001 17.82L7.83001 19.76C5.83198 19.3119 4.01801 18.2654 2.63001 16.76L3.75001 14.82C3.53628 14.5419 3.33926 14.2514 3.16001 13.95C2.98271 13.6455 2.82893 13.3279 2.70001 13H0.470007C-0.144137 11.0471 -0.144137 8.95284 0.470007 6.99999H2.70001C2.96676 6.34896 3.31993 5.7368 3.75001 5.17999L2.63001 3.23999C4.01518 1.73102 5.83033 0.683821 7.83001 0.23999L8.95001 2.17999C9.64678 2.08496 10.3532 2.08496 11.05 2.17999L12.17 0.23999C14.168 0.688043 15.982 1.73456 17.37 3.23999L16.25 5.16999ZM16 8.79999C15.8764 8.14214 15.6503 7.50776 15.33 6.91999C14.999 6.34271 14.5769 5.82268 14.08 5.37999L15.08 3.57999C14.4486 3.08116 13.7479 2.67692 13 2.37999L12 4.17999C10.7041 3.7335 9.29596 3.7335 8.00001 4.17999L7.00001 2.36999C6.65589 2.5255 6.32189 2.70252 6.00001 2.89999C5.6531 3.10236 5.31912 3.32613 5.00001 3.56999L6.00001 5.37999C4.97376 6.26768 4.27046 7.47031 4.00001 8.79999H1.89001C1.76932 9.59544 1.76932 10.4045 1.89001 11.2H4.00001C4.08896 11.8517 4.27784 12.4858 4.56001 13.08C4.90012 13.6595 5.33246 14.1797 5.84001 14.62L4.84001 16.42C5.47143 16.9188 6.17211 17.3231 6.92001 17.62L7.92001 15.82C9.21596 16.2665 10.6241 16.2665 11.92 15.82L12.92 17.63C13.2914 17.4776 13.6522 17.3005 14 17.1C14.3469 16.8976 14.6809 16.6739 15 16.43L14 14.62C15.0263 13.7323 15.7296 12.5297 16 11.2H18.08C18.2007 10.4045 18.2007 9.59544 18.08 8.79999H16Z" fill="#6E7178"/>
</svg>
